.
..............................Site Info...........................

 -   http://www.scenetime.com  *_*   

SceneTime is going to Close sign up on march/1, hurry up! get in before the doors are closed.

     We care to share . Join us on  http://www.scenetime.com 

    Be the first to get new release at  http://www.scenetime.com

        Seed back for speed


...................................NFO:.................................................








































          
          
              
              
                    
                    
                    
                    

The.Broken.Tower.2011.VODRiP.AC3-2.0.XviD-SiC

Poster:
[IMG]http://img198.imageshack.us/img198/4586/brokentowerposter.jpg[/IMG]

IMDB Link:
http://www.imdb.com/title/tt1756791/

Description:
A biography of American poet Hart Crane who committed suicide at the age of 32 by jumping off the steamship SS Orizaba. 

MediaInfo:
General
Complete name                            : The.Broken.Tower.2011.VODRiP.AC3-2.0.XviD-SiC.avi
Format                                   : AVI
Format/Info                              : Audio Video Interleave
File size                                : 1.33 GiB
Duration                                 : 1h 50mn
Overall bit rate                         : 1 718 Kbps

Video
ID                                       : 0
Format                                   : MPEG-4 Visual
Format profile                           : Advanced Simple@L5
Format settings, BVOP                    : 2
Format settings, QPel                    : No
Format settings, GMC                     : No warppoints
Format settings, Matrix                  : Default (H.263)
Muxing mode                              : Packed bitstream
Codec ID                                 : XVID
Codec ID/Hint                            : XviD
Duration                                 : 1h 50mn
Bit rate                                 : 1 454 Kbps
Width                                    : 720 pixels
Height                                   : 400 pixels
Display aspect ratio                     : 16:9
Frame rate                               : 23.976 fps
Color space                              : YUV
Chroma subsampling                       : 4:2:0
Bit depth                                : 8 bits
Scan type                                : Progressive
Compression mode                         : Lossy
Bits/(Pixel*Frame)                       : 0.211
Stream size                              : 1.12 GiB (85%)
Writing library                          : XviD 1.1.2 (UTC 2006-11-01)

Audio
ID                                       : 1
Format                                   : AC-3
Format/Info                              : Audio Coding 3
Mode extension                           : CM (complete main)
Codec ID                                 : 2000
Duration                                 : 1h 50mn
Bit rate mode                            : Constant
Bit rate                                 : 256 Kbps
Channel(s)                               : 2 channels
Channel positions                        : Front: L R
Sampling rate                            : 48.0 KHz
Bit depth                                : 16 bits
Compression mode                         : Lossy
Stream size                              : 203 MiB (15%)
Alignment                                : Aligned on interleaves
Interleave, duration                     : 64 ms (1.53 video frames)
Interleave, preload duration             : 192 ms
Title                                    : thebrokentower


Screenshots:
[IMG]http://img196.imageshack.us/img196/7518/screencap00002.png[/IMG]
[IMG]http://img710.imageshack.us/img710/5402/screencap00004.png[/IMG]
[IMG]http://img835.imageshack.us/img835/8159/screencap00007.png[/IMG]
[IMG]http://img694.imageshack.us/img694/9669/screencap00009.png[/IMG]
[IMG]http://img818.imageshack.us/img818/8877/screencap00010.png[/IMG]

Note : Enjoy a nice VODRiP of the new film starring, aswell as written and directed by James Franco. Did the usual stuff, turned out nice.

Source: wmv Digital VOD Rental file / Our Own 

Enjoy!

Respects to T00NG0D, ELEKTRI4KA, PA, YeFsTe, MrRep and everyone in the struggle...RiP MU